# xmcd CD database file
#
# Track frame offsets:
#	150
#	15733
#	36698
#	48637
#	65864
#	97752
#	110694
#	121415
#	127587
#	143420
#	155013
#	181103
#	196546
#	219687
#	223068
#
# Disc length: 3152 seconds
#
# Revision: 1
# Processed by: cddbd v1.5.2PL0 Copyright (c) Steve Scherf et al.
# Submitted via: CDex 1.92
#
DISCID=d80c4e0f
DTITLE=Semafor - Dr.Johann Faust, Praha II, Karlovo nam.40
DYEAR=1982
DGENRE=Jazz
TTITLE0=Protektoratni blues (H+S) - S. Benes
TTITLE1=vecirek filmaru
TTITLE2=Cas kraci kolem nas (H+S) - V. Krumlova
TTITLE3=Faustova smlouva s Mefistem
TTITLE4=Faust ve 20. stoleti
TTITLE5=Pisen pro dva (H+S) - J. Suchy a J. Molavcova
TTITLE6=monolog o valce I
TTITLE7=monolog o valce II
TTITLE8=vecirek filmaru
TTITLE9=Kluk v pepita saku (H+S) - V. Krumlova
TTITLE10=Faust a Marketka
TTITLE11=Laska je vypravna revue (H+S) - V. Kresadlova a I. Zaluska
TTITLE12=Chodime svetem s doboru naladou (H+S) - F. Havlik, E. Jegorov a spol.
TTITLE13=interview Fausta
TTITLE14=Dnes a denne tango (H+S) - J. Suchy
EXTD=YEAR: 1982
EXTT0=
EXTT1=
EXTT2=
EXTT3=
EXTT4=
EXTT5=
EXTT6=
EXTT7=
EXTT8=
EXTT9=
EXTT10=
EXTT11=
EXTT12=
EXTT13=
EXTT14=
PLAYORDER=
